<?xml version="1.0" encoding="UTF-8" standalone="no"?>
<!DOCTYPE svg PUBLIC "-//W3C//DTD SVG 1.1//EN"
 "http://www.w3.org/Graphics/SVG/1.1/DTD/svg11.dtd">
<!-- Generated by graphviz version 2.47.0 (20210316.0004)
 -->
<!-- Title: dependencies Pages: 1 -->
<svg width="575pt" height="211pt"
 viewBox="0.00 0.00 575.00 211.00" xmlns="http://www.w3.org/2000/svg" xmlns:xlink="http://www.w3.org/1999/xlink">
<g id="graph0" class="graph" transform="scale(1 1) rotate(0) translate(4 207)">
<title>dependencies</title>
<polygon fill="white" stroke="transparent" points="-4,4 -4,-207 571,-207 571,4 -4,4"/>
<text text-anchor="start" x="262.51" y="-42.4" font-family="Times-12" font-weight="bold" font-size="14.00">Legend</text>
<polygon fill="#ffffb3" stroke="transparent" points="49.5,-10 49.5,-30 69.5,-30 69.5,-10 49.5,-10"/>
<text text-anchor="start" x="73.13" y="-15.4" font-family="Times-12" font-size="14.00"> &#160;Declarations</text>
<polygon fill="#8dd3c7" stroke="transparent" points="162.5,-10 162.5,-30 182.5,-30 182.5,-10 162.5,-10"/>
<text text-anchor="start" x="186.23" y="-15.4" font-family="Times-12" font-size="14.00"> &#160;Module</text>
<polygon fill="#80b1d3" stroke="transparent" points="248.5,-10 248.5,-30 268.5,-30 268.5,-10 248.5,-10"/>
<text text-anchor="start" x="272.28" y="-15.4" font-family="Times-12" font-size="14.00"> &#160;Bootstrap</text>
<polygon fill="#fdb462" stroke="transparent" points="345.5,-10 345.5,-30 365.5,-30 365.5,-10 345.5,-10"/>
<text text-anchor="start" x="369.17" y="-15.4" font-family="Times-12" font-size="14.00"> &#160;Providers</text>
<polygon fill="#fb8072" stroke="transparent" points="441.5,-10 441.5,-30 461.5,-30 461.5,-10 441.5,-10"/>
<text text-anchor="start" x="465.23" y="-15.4" font-family="Times-12" font-size="14.00"> &#160;Exports</text>
<g id="clust1" class="cluster">
<title>cluster_AppModule</title>
<polygon fill="none" stroke="black" stroke-dasharray="1,5" points="8,-70 8,-195 559,-195 559,-70 8,-70"/>
</g>
<g id="clust3" class="cluster">
<title>cluster_AppModule_imports</title>
<polygon fill="none" stroke="black" points="345,-78 345,-130 551,-130 551,-78 345,-78"/>
</g>
<g id="clust6" class="cluster">
<title>cluster_AppModule_providers</title>
<polygon fill="none" stroke="black" points="16,-78 16,-130 337,-130 337,-78 16,-78"/>
</g>
<!-- TaskModule -->
<g id="node1" class="node">
<title>TaskModule</title>
<polygon fill="#8dd3c7" stroke="black" points="543.26,-122 540.26,-126 519.26,-126 516.26,-122 456.74,-122 456.74,-86 543.26,-86 543.26,-122"/>
<text text-anchor="middle" x="500" y="-99.8" font-family="Times,serif" font-size="14.00">TaskModule</text>
</g>
<!-- AppModule -->
<g id="node3" class="node">
<title>AppModule</title>
<polygon fill="#8dd3c7" stroke="black" points="375.66,-187 372.66,-191 351.66,-191 348.66,-187 292.34,-187 292.34,-151 375.66,-151 375.66,-187"/>
<text text-anchor="middle" x="334" y="-164.8" font-family="Times,serif" font-size="14.00">AppModule</text>
</g>
<!-- TaskModule&#45;&gt;AppModule -->
<g id="edge1" class="edge">
<title>TaskModule&#45;&gt;AppModule</title>
<path fill="none" stroke="black" d="M500,-122.11C500,-141.34 500,-169 500,-169 500,-169 385.89,-169 385.89,-169"/>
<polygon fill="black" stroke="black" points="385.89,-165.5 375.89,-169 385.89,-172.5 385.89,-165.5"/>
</g>
<!-- UserModule -->
<g id="node2" class="node">
<title>UserModule</title>
<polygon fill="#8dd3c7" stroke="black" points="438.98,-122 435.98,-126 414.98,-126 411.98,-122 353.02,-122 353.02,-86 438.98,-86 438.98,-122"/>
<text text-anchor="middle" x="396" y="-99.8" font-family="Times,serif" font-size="14.00">UserModule</text>
</g>
<!-- UserModule&#45;&gt;AppModule -->
<g id="edge2" class="edge">
<title>UserModule&#45;&gt;AppModule</title>
<path fill="none" stroke="black" d="M364.42,-122.11C364.42,-122.11 364.42,-140.99 364.42,-140.99"/>
<polygon fill="black" stroke="black" points="360.92,-140.99 364.42,-150.99 367.92,-140.99 360.92,-140.99"/>
</g>
<!-- AppService -->
<g id="node4" class="node">
<title>AppService</title>
<ellipse fill="#fdb462" stroke="black" cx="272" cy="-104" rx="56.74" ry="18"/>
<text text-anchor="middle" x="272" y="-99.8" font-family="Times,serif" font-size="14.00">AppService</text>
</g>
<!-- AppService&#45;&gt;AppModule -->
<g id="edge3" class="edge">
<title>AppService&#45;&gt;AppModule</title>
<path fill="none" stroke="black" d="M310.4,-117.47C310.4,-117.47 310.4,-140.86 310.4,-140.86"/>
<polygon fill="black" stroke="black" points="306.9,-140.86 310.4,-150.86 313.9,-140.86 306.9,-140.86"/>
</g>
<!-- IsUniqueConstraint -->
<g id="node5" class="node">
<title>IsUniqueConstraint</title>
<ellipse fill="#fdb462" stroke="black" cx="111" cy="-104" rx="86.84" ry="18"/>
<text text-anchor="middle" x="111" y="-99.8" font-family="Times,serif" font-size="14.00">IsUniqueConstraint</text>
</g>
<!-- IsUniqueConstraint&#45;&gt;AppModule -->
<g id="edge4" class="edge">
<title>IsUniqueConstraint&#45;&gt;AppModule</title>
<path fill="none" stroke="black" d="M111,-122.11C111,-141.34 111,-169 111,-169 111,-169 282.32,-169 282.32,-169"/>
<polygon fill="black" stroke="black" points="282.32,-172.5 292.32,-169 282.32,-165.5 282.32,-172.5"/>
</g>
</g>
</svg>
