<?xml version="1.0" encoding="UTF-8" standalone="no"?>
<!DOCTYPE svg PUBLIC "-//W3C//DTD SVG 1.1//EN"
 "http://www.w3.org/Graphics/SVG/1.1/DTD/svg11.dtd">
<!-- Generated by graphviz version 2.47.0 (20210316.0004)
 -->
<!-- Title: dependencies Pages: 1 -->
<svg width="616pt" height="287pt"
 viewBox="0.00 0.00 616.00 287.00" xmlns="http://www.w3.org/2000/svg" xmlns:xlink="http://www.w3.org/1999/xlink">
<g id="graph0" class="graph" transform="scale(1 1) rotate(0) translate(4 283)">
<title>dependencies</title>
<polygon fill="white" stroke="transparent" points="-4,4 -4,-283 612,-283 612,4 -4,4"/>
<text text-anchor="start" x="283.01" y="-42.4" font-family="Times-12" font-weight="bold" font-size="14.00">Legend</text>
<polygon fill="#ffffb3" stroke="transparent" points="70,-10 70,-30 90,-30 90,-10 70,-10"/>
<text text-anchor="start" x="93.63" y="-15.4" font-family="Times-12" font-size="14.00"> &#160;Declarations</text>
<polygon fill="#8dd3c7" stroke="transparent" points="183,-10 183,-30 203,-30 203,-10 183,-10"/>
<text text-anchor="start" x="206.73" y="-15.4" font-family="Times-12" font-size="14.00"> &#160;Module</text>
<polygon fill="#80b1d3" stroke="transparent" points="269,-10 269,-30 289,-30 289,-10 269,-10"/>
<text text-anchor="start" x="292.78" y="-15.4" font-family="Times-12" font-size="14.00"> &#160;Bootstrap</text>
<polygon fill="#fdb462" stroke="transparent" points="366,-10 366,-30 386,-30 386,-10 366,-10"/>
<text text-anchor="start" x="389.67" y="-15.4" font-family="Times-12" font-size="14.00"> &#160;Providers</text>
<polygon fill="#fb8072" stroke="transparent" points="462,-10 462,-30 482,-30 482,-10 462,-10"/>
<text text-anchor="start" x="485.73" y="-15.4" font-family="Times-12" font-size="14.00"> &#160;Exports</text>
<g id="clust1" class="cluster">
<title>cluster_AppModule</title>
<polygon fill="none" stroke="black" stroke-dasharray="1,5" points="8,-146 8,-271 559,-271 559,-146 8,-146"/>
</g>
<g id="clust3" class="cluster">
<title>cluster_AppModule_imports</title>
<polygon fill="none" stroke="black" points="345,-154 345,-206 551,-206 551,-154 345,-154"/>
</g>
<g id="clust6" class="cluster">
<title>cluster_AppModule_providers</title>
<polygon fill="none" stroke="black" points="16,-154 16,-206 337,-206 337,-154 16,-154"/>
</g>
<g id="clust7" class="cluster">
<title>cluster_TaskModule</title>
<polygon fill="none" stroke="black" stroke-dasharray="1,5" points="294,-70 294,-138 444,-138 444,-70 294,-70"/>
</g>
<g id="clust12" class="cluster">
<title>cluster_TaskModule_providers</title>
<polygon fill="none" stroke="black" points="302,-78 302,-130 436,-130 436,-78 302,-78"/>
</g>
<g id="clust13" class="cluster">
<title>cluster_UserModule</title>
<polygon fill="none" stroke="black" stroke-dasharray="1,5" points="452,-70 452,-138 600,-138 600,-70 452,-70"/>
</g>
<g id="clust18" class="cluster">
<title>cluster_UserModule_providers</title>
<polygon fill="none" stroke="black" points="460,-78 460,-130 592,-130 592,-78 460,-78"/>
</g>
<!-- TaskModule -->
<g id="node1" class="node">
<title>TaskModule</title>
<polygon fill="#8dd3c7" stroke="black" points="439.26,-198 436.26,-202 415.26,-202 412.26,-198 352.74,-198 352.74,-162 439.26,-162 439.26,-198"/>
<text text-anchor="middle" x="396" y="-175.8" font-family="Times,serif" font-size="14.00">TaskModule</text>
</g>
<!-- AppModule -->
<g id="node3" class="node">
<title>AppModule</title>
<polygon fill="#8dd3c7" stroke="black" points="375.66,-263 372.66,-267 351.66,-267 348.66,-263 292.34,-263 292.34,-227 375.66,-227 375.66,-263"/>
<text text-anchor="middle" x="334" y="-240.8" font-family="Times,serif" font-size="14.00">AppModule</text>
</g>
<!-- TaskModule&#45;&gt;AppModule -->
<g id="edge1" class="edge">
<title>TaskModule&#45;&gt;AppModule</title>
<path fill="none" stroke="black" d="M364.22,-198.11C364.22,-198.11 364.22,-216.99 364.22,-216.99"/>
<polygon fill="black" stroke="black" points="360.72,-216.99 364.22,-226.99 367.72,-216.99 360.72,-216.99"/>
</g>
<!-- UserModule -->
<g id="node2" class="node">
<title>UserModule</title>
<polygon fill="#8dd3c7" stroke="black" points="542.98,-198 539.98,-202 518.98,-202 515.98,-198 457.02,-198 457.02,-162 542.98,-162 542.98,-198"/>
<text text-anchor="middle" x="500" y="-175.8" font-family="Times,serif" font-size="14.00">UserModule</text>
</g>
<!-- UserModule&#45;&gt;AppModule -->
<g id="edge2" class="edge">
<title>UserModule&#45;&gt;AppModule</title>
<path fill="none" stroke="black" d="M500,-198.11C500,-217.34 500,-245 500,-245 500,-245 385.89,-245 385.89,-245"/>
<polygon fill="black" stroke="black" points="385.89,-241.5 375.89,-245 385.89,-248.5 385.89,-241.5"/>
</g>
<!-- AppService -->
<g id="node4" class="node">
<title>AppService</title>
<ellipse fill="#fdb462" stroke="black" cx="272" cy="-180" rx="56.74" ry="18"/>
<text text-anchor="middle" x="272" y="-175.8" font-family="Times,serif" font-size="14.00">AppService</text>
</g>
<!-- AppService&#45;&gt;AppModule -->
<g id="edge3" class="edge">
<title>AppService&#45;&gt;AppModule</title>
<path fill="none" stroke="black" d="M310.4,-193.47C310.4,-193.47 310.4,-216.86 310.4,-216.86"/>
<polygon fill="black" stroke="black" points="306.9,-216.86 310.4,-226.86 313.9,-216.86 306.9,-216.86"/>
</g>
<!-- IsUniqueConstraint -->
<g id="node5" class="node">
<title>IsUniqueConstraint</title>
<ellipse fill="#fdb462" stroke="black" cx="111" cy="-180" rx="86.84" ry="18"/>
<text text-anchor="middle" x="111" y="-175.8" font-family="Times,serif" font-size="14.00">IsUniqueConstraint</text>
</g>
<!-- IsUniqueConstraint&#45;&gt;AppModule -->
<g id="edge4" class="edge">
<title>IsUniqueConstraint&#45;&gt;AppModule</title>
<path fill="none" stroke="black" d="M111,-198.11C111,-217.34 111,-245 111,-245 111,-245 282.32,-245 282.32,-245"/>
<polygon fill="black" stroke="black" points="282.32,-248.5 292.32,-245 282.32,-241.5 282.32,-248.5"/>
</g>
<!-- TaskService -->
<g id="node6" class="node">
<title>TaskService</title>
<ellipse fill="#fdb462" stroke="black" cx="369" cy="-104" rx="58.53" ry="18"/>
<text text-anchor="middle" x="369" y="-99.8" font-family="Times,serif" font-size="14.00">TaskService</text>
</g>
<!-- TaskService&#45;&gt;TaskModule -->
<g id="edge5" class="edge">
<title>TaskService&#45;&gt;TaskModule</title>
<path fill="none" stroke="black" d="M390.19,-120.87C390.19,-120.87 390.19,-151.85 390.19,-151.85"/>
<polygon fill="black" stroke="black" points="386.69,-151.85 390.19,-161.85 393.69,-151.85 386.69,-151.85"/>
</g>
<!-- UserService -->
<g id="node7" class="node">
<title>UserService</title>
<ellipse fill="#fdb462" stroke="black" cx="526" cy="-104" rx="58.44" ry="18"/>
<text text-anchor="middle" x="526" y="-99.8" font-family="Times,serif" font-size="14.00">UserService</text>
</g>
<!-- UserService&#45;&gt;UserModule -->
<g id="edge6" class="edge">
<title>UserService&#45;&gt;UserModule</title>
<path fill="none" stroke="black" d="M505.38,-120.87C505.38,-120.87 505.38,-151.85 505.38,-151.85"/>
<polygon fill="black" stroke="black" points="501.88,-151.85 505.38,-161.85 508.88,-151.85 501.88,-151.85"/>
</g>
</g>
</svg>
