<?xml version="1.0" encoding="UTF-8" standalone="no"?>
<!DOCTYPE svg PUBLIC "-//W3C//DTD SVG 1.1//EN"
 "http://www.w3.org/Graphics/SVG/1.1/DTD/svg11.dtd">
<!-- Generated by graphviz version 2.47.0 (20210316.0004)
 -->
<!-- Title: dependencies Pages: 1 -->
<svg width="1353pt" height="284pt"
 viewBox="0.00 0.00 1353.00 284.00" xmlns="http://www.w3.org/2000/svg" xmlns:xlink="http://www.w3.org/1999/xlink">
<g id="graph0" class="graph" transform="scale(1 1) rotate(0) translate(4 280)">
<title>dependencies</title>
<polygon fill="white" stroke="transparent" points="-4,4 -4,-280 1349,-280 1349,4 -4,4"/>
<text text-anchor="start" x="651.51" y="-42.4" font-family="Times-12" font-weight="bold" font-size="14.00">Legend</text>
<polygon fill="#ffffb3" stroke="transparent" points="438.5,-10 438.5,-30 458.5,-30 458.5,-10 438.5,-10"/>
<text text-anchor="start" x="462.13" y="-15.4" font-family="Times-12" font-size="14.00"> &#160;Declarations</text>
<polygon fill="#8dd3c7" stroke="transparent" points="551.5,-10 551.5,-30 571.5,-30 571.5,-10 551.5,-10"/>
<text text-anchor="start" x="575.23" y="-15.4" font-family="Times-12" font-size="14.00"> &#160;Module</text>
<polygon fill="#80b1d3" stroke="transparent" points="637.5,-10 637.5,-30 657.5,-30 657.5,-10 637.5,-10"/>
<text text-anchor="start" x="661.28" y="-15.4" font-family="Times-12" font-size="14.00"> &#160;Bootstrap</text>
<polygon fill="#fdb462" stroke="transparent" points="734.5,-10 734.5,-30 754.5,-30 754.5,-10 734.5,-10"/>
<text text-anchor="start" x="758.17" y="-15.4" font-family="Times-12" font-size="14.00"> &#160;Providers</text>
<polygon fill="#fb8072" stroke="transparent" points="830.5,-10 830.5,-30 850.5,-30 850.5,-10 830.5,-10"/>
<text text-anchor="start" x="854.23" y="-15.4" font-family="Times-12" font-size="14.00"> &#160;Exports</text>
<g id="clust1" class="cluster">
<title>cluster_AppModule</title>
<polygon fill="none" stroke="black" stroke-dasharray="1,5" points="8,-70 8,-268 1337,-268 1337,-70 8,-70"/>
</g>
<g id="clust2" class="cluster">
<title>cluster_AppModule_declarations</title>
<polygon fill="none" stroke="black" points="293,-78 293,-130 1329,-130 1329,-78 293,-78"/>
</g>
<g id="clust9" class="cluster">
<title>cluster_AppModule_imports</title>
<polygon fill="none" stroke="black" points="16,-78 16,-130 285,-130 285,-78 16,-78"/>
</g>
<g id="clust11" class="cluster">
<title>cluster_AppModule_bootstrap</title>
<polygon fill="none" stroke="black" points="591,-208 591,-260 715,-260 715,-208 591,-208"/>
</g>
<!-- AppComponent -->
<g id="node1" class="node">
<title>AppComponent</title>
<polygon fill="#ffffb3" stroke="black" points="1320.94,-122 1215.06,-122 1215.06,-86 1320.94,-86 1320.94,-122"/>
<text text-anchor="middle" x="1268" y="-99.8" font-family="Times,serif" font-size="14.00">AppComponent</text>
</g>
<!-- AppModule -->
<g id="node7" class="node">
<title>AppModule</title>
<polygon fill="#8dd3c7" stroke="black" points="694.66,-187 691.66,-191 670.66,-191 667.66,-187 611.34,-187 611.34,-151 694.66,-151 694.66,-187"/>
<text text-anchor="middle" x="653" y="-164.8" font-family="Times,serif" font-size="14.00">AppModule</text>
</g>
<!-- AppComponent&#45;&gt;AppModule -->
<g id="edge1" class="edge">
<title>AppComponent&#45;&gt;AppModule</title>
<path fill="none" stroke="black" d="M1268,-122.29C1268,-144.21 1268,-178 1268,-178 1268,-178 704.79,-178 704.79,-178"/>
<polygon fill="black" stroke="black" points="704.79,-174.5 694.79,-178 704.79,-181.5 704.79,-174.5"/>
</g>
<!-- DashboardComponent -->
<g id="node2" class="node">
<title>DashboardComponent</title>
<polygon fill="#ffffb3" stroke="black" points="1196.97,-122 1055.03,-122 1055.03,-86 1196.97,-86 1196.97,-122"/>
<text text-anchor="middle" x="1126" y="-99.8" font-family="Times,serif" font-size="14.00">DashboardComponent</text>
</g>
<!-- DashboardComponent&#45;&gt;AppModule -->
<g id="edge2" class="edge">
<title>DashboardComponent&#45;&gt;AppModule</title>
<path fill="none" stroke="black" d="M1126,-122.11C1126,-141.34 1126,-169 1126,-169 1126,-169 704.98,-169 704.98,-169"/>
<polygon fill="black" stroke="black" points="704.98,-165.5 694.98,-169 704.98,-172.5 704.98,-165.5"/>
</g>
<!-- DashboardToolbarComponent -->
<g id="node3" class="node">
<title>DashboardToolbarComponent</title>
<polygon fill="#ffffb3" stroke="black" points="1037.29,-122 850.71,-122 850.71,-86 1037.29,-86 1037.29,-122"/>
<text text-anchor="middle" x="944" y="-99.8" font-family="Times,serif" font-size="14.00">DashboardToolbarComponent</text>
</g>
<!-- DashboardToolbarComponent&#45;&gt;AppModule -->
<g id="edge3" class="edge">
<title>DashboardToolbarComponent&#45;&gt;AppModule</title>
<path fill="none" stroke="black" d="M944,-122.03C944,-138.4 944,-160 944,-160 944,-160 704.69,-160 704.69,-160"/>
<polygon fill="black" stroke="black" points="704.69,-156.5 694.69,-160 704.69,-163.5 704.69,-156.5"/>
</g>
<!-- EditTaskDialogComponent -->
<g id="node4" class="node">
<title>EditTaskDialogComponent</title>
<polygon fill="#ffffb3" stroke="black" points="832.98,-122 663.02,-122 663.02,-86 832.98,-86 832.98,-122"/>
<text text-anchor="middle" x="748" y="-99.8" font-family="Times,serif" font-size="14.00">EditTaskDialogComponent</text>
</g>
<!-- EditTaskDialogComponent&#45;&gt;AppModule -->
<g id="edge4" class="edge">
<title>EditTaskDialogComponent&#45;&gt;AppModule</title>
<path fill="none" stroke="black" d="M678.92,-122.11C678.92,-122.11 678.92,-140.99 678.92,-140.99"/>
<polygon fill="black" stroke="black" points="675.42,-140.99 678.92,-150.99 682.42,-140.99 675.42,-140.99"/>
</g>
<!-- NewTaskDialogComponent -->
<g id="node5" class="node">
<title>NewTaskDialogComponent</title>
<polygon fill="#ffffb3" stroke="black" points="644.57,-122 471.43,-122 471.43,-86 644.57,-86 644.57,-122"/>
<text text-anchor="middle" x="558" y="-99.8" font-family="Times,serif" font-size="14.00">NewTaskDialogComponent</text>
</g>
<!-- NewTaskDialogComponent&#45;&gt;AppModule -->
<g id="edge5" class="edge">
<title>NewTaskDialogComponent&#45;&gt;AppModule</title>
<path fill="none" stroke="black" d="M627.85,-122.11C627.85,-122.11 627.85,-140.99 627.85,-140.99"/>
<polygon fill="black" stroke="black" points="624.35,-140.99 627.85,-150.99 631.35,-140.99 624.35,-140.99"/>
</g>
<!-- TaskContentComponent -->
<g id="node6" class="node">
<title>TaskContentComponent</title>
<polygon fill="#ffffb3" stroke="black" points="453.38,-122 300.62,-122 300.62,-86 453.38,-86 453.38,-122"/>
<text text-anchor="middle" x="377" y="-99.8" font-family="Times,serif" font-size="14.00">TaskContentComponent</text>
</g>
<!-- TaskContentComponent&#45;&gt;AppModule -->
<g id="edge6" class="edge">
<title>TaskContentComponent&#45;&gt;AppModule</title>
<path fill="none" stroke="black" d="M377,-122.03C377,-138.4 377,-160 377,-160 377,-160 601.08,-160 601.08,-160"/>
<polygon fill="black" stroke="black" points="601.08,-163.5 611.08,-160 601.08,-156.5 601.08,-163.5"/>
</g>
<!-- AppComponent  -->
<g id="node10" class="node">
<title>AppComponent </title>
<polygon fill="#80b1d3" stroke="black" points="707.44,-252 598.56,-252 598.56,-216 707.44,-216 707.44,-252"/>
<text text-anchor="middle" x="653" y="-229.8" font-family="Times,serif" font-size="14.00">AppComponent </text>
</g>
<!-- AppModule&#45;&gt;AppComponent  -->
<g id="edge9" class="edge">
<title>AppModule&#45;&gt;AppComponent </title>
<path fill="none" stroke="black" stroke-dasharray="1,5" d="M653,-187.11C653,-187.11 653,-205.99 653,-205.99"/>
<polygon fill="black" stroke="black" points="649.5,-205.99 653,-215.99 656.5,-205.99 649.5,-205.99"/>
</g>
<!-- AppRoutingModule -->
<g id="node8" class="node">
<title>AppRoutingModule</title>
<polygon fill="#8dd3c7" stroke="black" points="277.27,-122 274.27,-126 253.27,-126 250.27,-122 148.73,-122 148.73,-86 277.27,-86 277.27,-122"/>
<text text-anchor="middle" x="213" y="-99.8" font-family="Times,serif" font-size="14.00">AppRoutingModule</text>
</g>
<!-- AppRoutingModule&#45;&gt;AppModule -->
<g id="edge7" class="edge">
<title>AppRoutingModule&#45;&gt;AppModule</title>
<path fill="none" stroke="black" d="M213,-122.11C213,-141.34 213,-169 213,-169 213,-169 601.21,-169 601.21,-169"/>
<polygon fill="black" stroke="black" points="601.21,-172.5 611.21,-169 601.21,-165.5 601.21,-172.5"/>
</g>
<!-- MaterialModule -->
<g id="node9" class="node">
<title>MaterialModule</title>
<polygon fill="#8dd3c7" stroke="black" points="130.47,-122 127.47,-126 106.47,-126 103.47,-122 23.53,-122 23.53,-86 130.47,-86 130.47,-122"/>
<text text-anchor="middle" x="77" y="-99.8" font-family="Times,serif" font-size="14.00">MaterialModule</text>
</g>
<!-- MaterialModule&#45;&gt;AppModule -->
<g id="edge8" class="edge">
<title>MaterialModule&#45;&gt;AppModule</title>
<path fill="none" stroke="black" d="M77,-122.29C77,-144.21 77,-178 77,-178 77,-178 601.11,-178 601.11,-178"/>
<polygon fill="black" stroke="black" points="601.11,-181.5 611.11,-178 601.11,-174.5 601.11,-181.5"/>
</g>
</g>
</svg>
