<?xml version="1.0" encoding="UTF-8" standalone="no"?>
<!DOCTYPE svg PUBLIC "-//W3C//DTD SVG 1.1//EN"
 "http://www.w3.org/Graphics/SVG/1.1/DTD/svg11.dtd">
<!-- Generated by graphviz version 2.47.0 (20210316.0004)
 -->
<!-- Title: dependencies Pages: 1 -->
<svg width="2169pt" height="284pt"
 viewBox="0.00 0.00 2169.00 284.00" xmlns="http://www.w3.org/2000/svg" xmlns:xlink="http://www.w3.org/1999/xlink">
<g id="graph0" class="graph" transform="scale(1 1) rotate(0) translate(4 280)">
<title>dependencies</title>
<polygon fill="white" stroke="transparent" points="-4,4 -4,-280 2165,-280 2165,4 -4,4"/>
<text text-anchor="start" x="1059.51" y="-42.4" font-family="Times-12" font-weight="bold" font-size="14.00">Legend</text>
<polygon fill="#ffffb3" stroke="transparent" points="846.5,-10 846.5,-30 866.5,-30 866.5,-10 846.5,-10"/>
<text text-anchor="start" x="870.13" y="-15.4" font-family="Times-12" font-size="14.00"> &#160;Declarations</text>
<polygon fill="#8dd3c7" stroke="transparent" points="959.5,-10 959.5,-30 979.5,-30 979.5,-10 959.5,-10"/>
<text text-anchor="start" x="983.23" y="-15.4" font-family="Times-12" font-size="14.00"> &#160;Module</text>
<polygon fill="#80b1d3" stroke="transparent" points="1045.5,-10 1045.5,-30 1065.5,-30 1065.5,-10 1045.5,-10"/>
<text text-anchor="start" x="1069.28" y="-15.4" font-family="Times-12" font-size="14.00"> &#160;Bootstrap</text>
<polygon fill="#fdb462" stroke="transparent" points="1142.5,-10 1142.5,-30 1162.5,-30 1162.5,-10 1142.5,-10"/>
<text text-anchor="start" x="1166.17" y="-15.4" font-family="Times-12" font-size="14.00"> &#160;Providers</text>
<polygon fill="#fb8072" stroke="transparent" points="1238.5,-10 1238.5,-30 1258.5,-30 1258.5,-10 1238.5,-10"/>
<text text-anchor="start" x="1262.23" y="-15.4" font-family="Times-12" font-size="14.00"> &#160;Exports</text>
<g id="clust1" class="cluster">
<title>cluster_AppModule</title>
<polygon fill="none" stroke="black" stroke-dasharray="1,5" points="8,-70 8,-268 2153,-268 2153,-70 8,-70"/>
</g>
<g id="clust2" class="cluster">
<title>cluster_AppModule_declarations</title>
<polygon fill="none" stroke="black" points="831,-78 831,-130 2145,-130 2145,-78 831,-78"/>
</g>
<g id="clust11" class="cluster">
<title>cluster_AppModule_imports</title>
<polygon fill="none" stroke="black" points="554,-78 554,-130 823,-130 823,-78 554,-78"/>
</g>
<g id="clust13" class="cluster">
<title>cluster_AppModule_bootstrap</title>
<polygon fill="none" stroke="black" points="1011,-208 1011,-260 1135,-260 1135,-208 1011,-208"/>
</g>
<g id="clust14" class="cluster">
<title>cluster_AppModule_providers</title>
<polygon fill="none" stroke="black" points="16,-78 16,-130 546,-130 546,-78 16,-78"/>
</g>
<!-- AppComponent -->
<g id="node1" class="node">
<title>AppComponent</title>
<polygon fill="#ffffb3" stroke="black" points="2136.94,-122 2031.06,-122 2031.06,-86 2136.94,-86 2136.94,-122"/>
<text text-anchor="middle" x="2084" y="-99.8" font-family="Times,serif" font-size="14.00">AppComponent</text>
</g>
<!-- AppModule -->
<g id="node9" class="node">
<title>AppModule</title>
<polygon fill="#8dd3c7" stroke="black" points="1114.66,-187 1111.66,-191 1090.66,-191 1087.66,-187 1031.34,-187 1031.34,-151 1114.66,-151 1114.66,-187"/>
<text text-anchor="middle" x="1073" y="-164.8" font-family="Times,serif" font-size="14.00">AppModule</text>
</g>
<!-- AppComponent&#45;&gt;AppModule -->
<g id="edge1" class="edge">
<title>AppComponent&#45;&gt;AppModule</title>
<path fill="none" stroke="black" d="M2084,-122.09C2084,-145.13 2084,-182 2084,-182 2084,-182 1124.84,-182 1124.84,-182"/>
<polygon fill="black" stroke="black" points="1124.84,-178.5 1114.84,-182 1124.84,-185.5 1124.84,-178.5"/>
</g>
<!-- DashboardComponent -->
<g id="node2" class="node">
<title>DashboardComponent</title>
<polygon fill="#ffffb3" stroke="black" points="2012.97,-122 1871.03,-122 1871.03,-86 2012.97,-86 2012.97,-122"/>
<text text-anchor="middle" x="1942" y="-99.8" font-family="Times,serif" font-size="14.00">DashboardComponent</text>
</g>
<!-- DashboardComponent&#45;&gt;AppModule -->
<g id="edge2" class="edge">
<title>DashboardComponent&#45;&gt;AppModule</title>
<path fill="none" stroke="black" d="M1942,-122.04C1942,-143.66 1942,-177 1942,-177 1942,-177 1124.91,-177 1124.91,-177"/>
<polygon fill="black" stroke="black" points="1124.91,-173.5 1114.91,-177 1124.91,-180.5 1124.91,-173.5"/>
</g>
<!-- DashboardToolbarComponent -->
<g id="node3" class="node">
<title>DashboardToolbarComponent</title>
<polygon fill="#ffffb3" stroke="black" points="1853.29,-122 1666.71,-122 1666.71,-86 1853.29,-86 1853.29,-122"/>
<text text-anchor="middle" x="1760" y="-99.8" font-family="Times,serif" font-size="14.00">DashboardToolbarComponent</text>
</g>
<!-- DashboardToolbarComponent&#45;&gt;AppModule -->
<g id="edge3" class="edge">
<title>DashboardToolbarComponent&#45;&gt;AppModule</title>
<path fill="none" stroke="black" d="M1760,-122.22C1760,-142.37 1760,-172 1760,-172 1760,-172 1124.68,-172 1124.68,-172"/>
<polygon fill="black" stroke="black" points="1124.68,-168.5 1114.68,-172 1124.68,-175.5 1124.68,-168.5"/>
</g>
<!-- EditTaskDialogComponent -->
<g id="node4" class="node">
<title>EditTaskDialogComponent</title>
<polygon fill="#ffffb3" stroke="black" points="1648.98,-122 1479.02,-122 1479.02,-86 1648.98,-86 1648.98,-122"/>
<text text-anchor="middle" x="1564" y="-99.8" font-family="Times,serif" font-size="14.00">EditTaskDialogComponent</text>
</g>
<!-- EditTaskDialogComponent&#45;&gt;AppModule -->
<g id="edge4" class="edge">
<title>EditTaskDialogComponent&#45;&gt;AppModule</title>
<path fill="none" stroke="black" d="M1564,-122.22C1564,-140.83 1564,-167 1564,-167 1564,-167 1124.86,-167 1124.86,-167"/>
<polygon fill="black" stroke="black" points="1124.86,-163.5 1114.86,-167 1124.86,-170.5 1124.86,-163.5"/>
</g>
<!-- LoginComponent -->
<g id="node5" class="node">
<title>LoginComponent</title>
<polygon fill="#ffffb3" stroke="black" points="1461.28,-122 1346.72,-122 1346.72,-86 1461.28,-86 1461.28,-122"/>
<text text-anchor="middle" x="1404" y="-99.8" font-family="Times,serif" font-size="14.00">LoginComponent</text>
</g>
<!-- LoginComponent&#45;&gt;AppModule -->
<g id="edge5" class="edge">
<title>LoginComponent&#45;&gt;AppModule</title>
<path fill="none" stroke="black" d="M1404,-122.03C1404,-139.06 1404,-162 1404,-162 1404,-162 1124.92,-162 1124.92,-162"/>
<polygon fill="black" stroke="black" points="1124.92,-158.5 1114.92,-162 1124.92,-165.5 1124.92,-158.5"/>
</g>
<!-- NewTaskDialogComponent -->
<g id="node6" class="node">
<title>NewTaskDialogComponent</title>
<polygon fill="#ffffb3" stroke="black" points="1328.57,-122 1155.43,-122 1155.43,-86 1328.57,-86 1328.57,-122"/>
<text text-anchor="middle" x="1242" y="-99.8" font-family="Times,serif" font-size="14.00">NewTaskDialogComponent</text>
</g>
<!-- NewTaskDialogComponent&#45;&gt;AppModule -->
<g id="edge6" class="edge">
<title>NewTaskDialogComponent&#45;&gt;AppModule</title>
<path fill="none" stroke="black" d="M1242,-122.24C1242,-137.57 1242,-157 1242,-157 1242,-157 1124.78,-157 1124.78,-157"/>
<polygon fill="black" stroke="black" points="1124.78,-153.5 1114.78,-157 1124.78,-160.5 1124.78,-153.5"/>
</g>
<!-- RegisterComponent -->
<g id="node7" class="node">
<title>RegisterComponent</title>
<polygon fill="#ffffb3" stroke="black" points="1136.98,-122 1009.02,-122 1009.02,-86 1136.98,-86 1136.98,-122"/>
<text text-anchor="middle" x="1073" y="-99.8" font-family="Times,serif" font-size="14.00">RegisterComponent</text>
</g>
<!-- RegisterComponent&#45;&gt;AppModule -->
<g id="edge7" class="edge">
<title>RegisterComponent&#45;&gt;AppModule</title>
<path fill="none" stroke="black" d="M1073,-122.11C1073,-122.11 1073,-140.99 1073,-140.99"/>
<polygon fill="black" stroke="black" points="1069.5,-140.99 1073,-150.99 1076.5,-140.99 1069.5,-140.99"/>
</g>
<!-- TaskContentComponent -->
<g id="node8" class="node">
<title>TaskContentComponent</title>
<polygon fill="#ffffb3" stroke="black" points="991.38,-122 838.62,-122 838.62,-86 991.38,-86 991.38,-122"/>
<text text-anchor="middle" x="915" y="-99.8" font-family="Times,serif" font-size="14.00">TaskContentComponent</text>
</g>
<!-- TaskContentComponent&#45;&gt;AppModule -->
<g id="edge8" class="edge">
<title>TaskContentComponent&#45;&gt;AppModule</title>
<path fill="none" stroke="black" d="M915,-122.24C915,-137.57 915,-157 915,-157 915,-157 1021.07,-157 1021.07,-157"/>
<polygon fill="black" stroke="black" points="1021.07,-160.5 1031.07,-157 1021.07,-153.5 1021.07,-160.5"/>
</g>
<!-- AppComponent  -->
<g id="node12" class="node">
<title>AppComponent </title>
<polygon fill="#80b1d3" stroke="black" points="1127.44,-252 1018.56,-252 1018.56,-216 1127.44,-216 1127.44,-252"/>
<text text-anchor="middle" x="1073" y="-229.8" font-family="Times,serif" font-size="14.00">AppComponent </text>
</g>
<!-- AppModule&#45;&gt;AppComponent  -->
<g id="edge11" class="edge">
<title>AppModule&#45;&gt;AppComponent </title>
<path fill="none" stroke="black" stroke-dasharray="1,5" d="M1073,-187.11C1073,-187.11 1073,-205.99 1073,-205.99"/>
<polygon fill="black" stroke="black" points="1069.5,-205.99 1073,-215.99 1076.5,-205.99 1069.5,-205.99"/>
</g>
<!-- AppRoutingModule -->
<g id="node10" class="node">
<title>AppRoutingModule</title>
<polygon fill="#8dd3c7" stroke="black" points="815.27,-122 812.27,-126 791.27,-126 788.27,-122 686.73,-122 686.73,-86 815.27,-86 815.27,-122"/>
<text text-anchor="middle" x="751" y="-99.8" font-family="Times,serif" font-size="14.00">AppRoutingModule</text>
</g>
<!-- AppRoutingModule&#45;&gt;AppModule -->
<g id="edge9" class="edge">
<title>AppRoutingModule&#45;&gt;AppModule</title>
<path fill="none" stroke="black" d="M751,-122.03C751,-139.06 751,-162 751,-162 751,-162 1021.23,-162 1021.23,-162"/>
<polygon fill="black" stroke="black" points="1021.23,-165.5 1031.23,-162 1021.23,-158.5 1021.23,-165.5"/>
</g>
<!-- MaterialModule -->
<g id="node11" class="node">
<title>MaterialModule</title>
<polygon fill="#8dd3c7" stroke="black" points="668.47,-122 665.47,-126 644.47,-126 641.47,-122 561.53,-122 561.53,-86 668.47,-86 668.47,-122"/>
<text text-anchor="middle" x="615" y="-99.8" font-family="Times,serif" font-size="14.00">MaterialModule</text>
</g>
<!-- MaterialModule&#45;&gt;AppModule -->
<g id="edge10" class="edge">
<title>MaterialModule&#45;&gt;AppModule</title>
<path fill="none" stroke="black" d="M615,-122.22C615,-140.83 615,-167 615,-167 615,-167 1021.14,-167 1021.14,-167"/>
<polygon fill="black" stroke="black" points="1021.14,-170.5 1031.14,-167 1021.14,-163.5 1021.14,-170.5"/>
</g>
<!-- AuthService -->
<g id="node13" class="node">
<title>AuthService</title>
<ellipse fill="#fdb462" stroke="black" cx="479" cy="-104" rx="59.11" ry="18"/>
<text text-anchor="middle" x="479" y="-99.8" font-family="Times,serif" font-size="14.00">AuthService</text>
</g>
<!-- AuthService&#45;&gt;AppModule -->
<g id="edge12" class="edge">
<title>AuthService&#45;&gt;AppModule</title>
<path fill="none" stroke="black" d="M479,-122.22C479,-142.37 479,-172 479,-172 479,-172 1021.23,-172 1021.23,-172"/>
<polygon fill="black" stroke="black" points="1021.23,-175.5 1031.23,-172 1021.23,-168.5 1021.23,-175.5"/>
</g>
<!-- HttpRequestInterceptor -->
<g id="node14" class="node">
<title>HttpRequestInterceptor</title>
<ellipse fill="#fdb462" stroke="black" cx="300" cy="-104" rx="101.84" ry="18"/>
<text text-anchor="middle" x="300" y="-99.8" font-family="Times,serif" font-size="14.00">HttpRequestInterceptor</text>
</g>
<!-- HttpRequestInterceptor&#45;&gt;AppModule -->
<g id="edge13" class="edge">
<title>HttpRequestInterceptor&#45;&gt;AppModule</title>
<path fill="none" stroke="black" d="M300,-122.04C300,-143.66 300,-177 300,-177 300,-177 1021.17,-177 1021.17,-177"/>
<polygon fill="black" stroke="black" points="1021.17,-180.5 1031.17,-177 1021.17,-173.5 1021.17,-180.5"/>
</g>
<!-- TokenInterceptor -->
<g id="node15" class="node">
<title>TokenInterceptor</title>
<ellipse fill="#fdb462" stroke="black" cx="102" cy="-104" rx="78.13" ry="18"/>
<text text-anchor="middle" x="102" y="-99.8" font-family="Times,serif" font-size="14.00">TokenInterceptor</text>
</g>
<!-- TokenInterceptor&#45;&gt;AppModule -->
<g id="edge14" class="edge">
<title>TokenInterceptor&#45;&gt;AppModule</title>
<path fill="none" stroke="black" d="M102,-122.09C102,-145.13 102,-182 102,-182 102,-182 1021.28,-182 1021.28,-182"/>
<polygon fill="black" stroke="black" points="1021.28,-185.5 1031.28,-182 1021.28,-178.5 1021.28,-185.5"/>
</g>
</g>
</svg>
